<svg xmlns="http://www.w3.org/2000/svg" fill="none" viewBox="0 0 242 256">
  <path fill="#E00" d="M122.029 52.22V32.3h-2.058v19.92H121c.345 0 .683-.007 1.029 0ZM102.561 134.429v-2.404l-59.76 36.425c.386.568.74 1.152 1.07 1.753l58.69-35.774ZM139.932 133.556v.651l58.263 35.914c.337-.601.699-1.186 1.086-1.745l-59.349-36.573v1.753ZM121 24.662c6.71 0 12.15-5.44 12.15-12.15S127.71.362 121 .362s-12.15 5.44-12.15 12.15 5.44 12.15 12.15 12.15ZM215.531 191.778c6.71 0 12.149-5.44 12.149-12.15s-5.439-12.149-12.149-12.149c-6.711 0-12.15 5.439-12.15 12.149 0 6.71 5.439 12.15 12.15 12.15ZM26.469 191.778c6.71 0 12.15-5.44 12.15-12.15s-5.44-12.149-12.15-12.149-12.15 5.439-12.15 12.149c0 6.71 5.44 12.15 12.15 12.15Z"/>
  <path fill="#E00" d="M133.742 133.556v-16.207a30.872 30.872 0 0 0 6.503-52.258 30.868 30.868 0 1 0-31.51 52.463v52.723a1.03 1.03 0 0 0 .296.725l9.178 9.186a1.056 1.056 0 0 0 1.125.22c.124-.051.237-.125.332-.22l9.179-9.186a.999.999 0 0 0 .304-.725v-13.343l8.882-8.882a1.038 1.038 0 0 0 0-1.449l-8.454-8.453 3.861-3.869c.192-.192.302-.453.304-.725ZM121 77.196a3.459 3.459 0 0 1-.675-6.849 3.459 3.459 0 0 1 3.12 5.836A3.46 3.46 0 0 1 121 77.195ZM46.62 59.168a.898.898 0 1 0 0-1.795.898.898 0 0 0 0 1.795ZM42.15 63.638a.897.897 0 1 0-.171-1.786.897.897 0 0 0 .171 1.786ZM42.15 54.69a.897.897 0 1 0-.172-1.786.897.897 0 0 0 .172 1.786ZM46.62 68.108a.897.897 0 1 0-.897-.89.89.89 0 0 0 .897.89ZM42.15 72.585a.897.897 0 1 0 0-1.794.897.897 0 0 0 0 1.794ZM33.202 63.638a.897.897 0 1 0 0-1.794.897.897 0 0 0 0 1.794ZM37.672 59.168a.897.897 0 1 0 .017-1.794.897.897 0 0 0-.017 1.794ZM33.202 81.492a.898.898 0 1 0-.828-.547.889.889 0 0 0 .828.547ZM33.202 72.585a.897.897 0 1 0 0-1.794.897.897 0 0 0 0 1.794ZM28.733 77.055a.897.897 0 1 0-.898-.897.889.889 0 0 0 .898.897ZM37.672 77.055a.897.897 0 1 0 .172-1.786.897.897 0 0 0-.172 1.786ZM28.733 68.108a.897.897 0 1 0-.898-.89.889.889 0 0 0 .898.89ZM37.672 68.108a.898.898 0 1 0-.889-.89.89.89 0 0 0 .89.89ZM24.255 79.739a.898.898 0 1 0 .172 1.787.898.898 0 0 0-.172-1.787ZM24.255 70.791a.898.898 0 1 0 0 1.795.898.898 0 0 0 0-1.795ZM15.316 79.739a.898.898 0 1 0-.017 1.795.898.898 0 0 0 .017-1.795ZM19.752 75.27a.897.897 0 1 0 .897.888.889.889 0 0 0-.897-.889Z"/>
  <path fill="#E00" d="M25.44 159.848h2.058V87.946a24.925 24.925 0 0 0 19.591-10.94l38.77 23.871a32.86 32.86 0 0 1-.823-2.93l-36.86-22.719a24.85 24.85 0 0 0 .707-22.99l55.152-29.51a18.237 18.237 0 0 1-.972-1.812l-55.15 29.51a24.875 24.875 0 1 0-22.456 37.495l-.017 71.927Zm-4.774-74.685v-.057a.898.898 0 0 0-1.353-.773.88.88 0 0 0-.318.328 22.85 22.85 0 1 1 22.999-4.897.872.872 0 0 0-.733.65 22.645 22.645 0 0 1-11.92 5.301.824.824 0 0 0 .248-.61.9.9 0 0 0-1.256-.906.897.897 0 0 0-.53.907.881.881 0 0 0 .403.732c-.584.042-1.177.075-1.77.075a22.891 22.891 0 0 1-5.77-.75ZM141.151 226.465a.892.892 0 0 0 .829-.554.894.894 0 0 0-.654-1.223.891.891 0 0 0-.921.382.893.893 0 0 0 .111 1.133.898.898 0 0 0 .635.262ZM136.681 229.149a.888.888 0 0 0-.689.229.885.885 0 0 0-.294.664.89.89 0 0 0 .294.664.888.888 0 0 0 .689.229.896.896 0 0 0 0-1.786ZM136.681 220.201a.897.897 0 1 0 .001 1.794.897.897 0 0 0-.001-1.794ZM141.151 235.421a.892.892 0 0 0 .829-.553.894.894 0 0 0-.654-1.224.891.891 0 0 0-.921.382.893.893 0 0 0 .111 1.133.898.898 0 0 0 .635.262ZM136.681 238.097a.9.9 0 0 0-.369 1.744.896.896 0 1 0 .369-1.744ZM127.733 229.149a.9.9 0 0 0-.88 1.072.9.9 0 0 0 .705.705.895.895 0 0 0 1.072-.88.896.896 0 0 0-.897-.897ZM132.203 224.72a.9.9 0 0 0-.811.894.896.896 0 1 0 .811-.894ZM127.733 247.036a.9.9 0 0 0-.88 1.072.9.9 0 0 0 .705.705.895.895 0 0 0 1.072-.88.896.896 0 0 0-.897-.897ZM127.733 238.096a.896.896 0 0 0-.631 1.535.9.9 0 0 0 .98.189.89.89 0 0 0 .548-.835.895.895 0 0 0-.263-.631.895.895 0 0 0-.634-.258ZM123.263 242.566a.9.9 0 0 0-.983.894.893.893 0 0 0 .615.851.9.9 0 0 0 .947-.248.896.896 0 0 0-.579-1.497ZM132.203 242.566a.903.903 0 0 0-.499.151.903.903 0 0 0-.381.921.9.9 0 1 0 1.225-1.006.908.908 0 0 0-.345-.066ZM123.263 233.619a.89.89 0 0 0-.834.548.888.888 0 0 0 .189.98.899.899 0 0 0 1.383-.132.899.899 0 0 0-.738-1.396ZM132.203 233.619a.895.895 0 0 0-.635 1.531.9.9 0 0 0 .978.195.899.899 0 0 0 .002-1.66.89.89 0 0 0-.345-.066ZM118.785 247.036a.897.897 0 1 0 0 1.795.897.897 0 0 0 0-1.795ZM118.786 238.097a.895.895 0 0 0-.579 1.496.896.896 0 1 0 1.268-1.267.9.9 0 0 0-.689-.229ZM109.846 247.036a.9.9 0 0 0-.835.548.896.896 0 1 0 .835-.548ZM114.316 242.566a.896.896 0 0 0-.88 1.073.892.892 0 0 0 .705.705.9.9 0 0 0 .921-.382.9.9 0 0 0-.112-1.133.897.897 0 0 0-.634-.263ZM235.072 68.132a.896.896 0 0 0-.634 1.532.896.896 0 0 0 1.531-.634.894.894 0 0 0-.897-.898ZM235.072 60.979a.901.901 0 0 0 .829-.554.893.893 0 0 0-.195-.978.894.894 0 0 0-1.38.136.894.894 0 0 0 .112 1.133.896.896 0 0 0 .634.263ZM230.602 63.663a.9.9 0 0 0-.906.53.89.89 0 0 0 0 .726.896.896 0 0 0 1.484.24.898.898 0 0 0-.578-1.496ZM230.602 54.715a.893.893 0 0 0-.835.548.896.896 0 1 0 .835-.548ZM227.022 69.025a.893.893 0 1 0-1.787.001.893.893 0 0 0 1.787 0ZM226.124 59.193a.897.897 0 1 0 .172 1.786.897.897 0 0 0-.172-1.786ZM230.602 72.61a.894.894 0 0 0-.835.55.892.892 0 0 0 .193.982.896.896 0 0 0 1.531-.643.887.887 0 0 0-.889-.889ZM226.124 77.08a.897.897 0 1 0 .172 1.786.897.897 0 0 0-.172-1.786ZM217.185 68.132a.896.896 0 0 0-.897.898.904.904 0 0 0 .229.689.89.89 0 0 0 .664.294.896.896 0 0 0 .893-.983.894.894 0 0 0-.257-.634.89.89 0 0 0-.632-.264ZM221.655 63.663a.899.899 0 0 0-.635 1.531.897.897 0 1 0 .635-1.531ZM217.185 77.08a.902.902 0 0 0-.689.23.896.896 0 1 0 1.267 1.266.898.898 0 0 0-.578-1.496ZM212.707 81.55a.895.895 0 0 0-.88 1.072.897.897 0 1 0 1.711-.52.886.886 0 0 0-.831-.553ZM221.655 81.55a.899.899 0 0 0-.635 1.532.898.898 0 1 0 .635-1.532ZM212.707 72.61a.897.897 0 1 0 .172 1.786.897.897 0 0 0-.172-1.786ZM221.655 72.61a.9.9 0 0 0-.88 1.076.898.898 0 1 0 .88-1.076ZM208.254 77.08a.899.899 0 0 0-.635 1.532.902.902 0 0 0 .978.194.901.901 0 0 0 .554-.829.898.898 0 0 0-.897-.897ZM203.768 81.55a.899.899 0 0 0-.646 1.528.897.897 0 1 0 .646-1.528Z"/>
  <path fill="#E00" d="m197.611 188.082-55.209 29.642a24.886 24.886 0 0 0-20.381-12.199v-19.567c-.65.312-1.344.52-2.058.618v18.932a24.881 24.881 0 0 0-20.365 12.216l-55.2-29.634c-.294.621-.621 1.225-.98 1.811l55.2 29.634a24.882 24.882 0 0 0 22.39 35.742 24.885 24.885 0 0 0 22.39-35.742l55.2-29.634a19.228 19.228 0 0 1-.987-1.819Zm-53.785 42.302a22.765 22.765 0 0 1-1.894 9.097 22.768 22.768 0 0 1-5.374 7.58.878.878 0 0 0-.733.658 22.703 22.703 0 0 1-11.919 5.301.891.891 0 0 0-.151-1.359.894.894 0 0 0-1.126.116.897.897 0 0 0-.263.634.878.878 0 0 0 .404.725c-.585.041-1.177.074-1.77.074a22.907 22.907 0 0 1-5.803-.749.14.14 0 0 0 0-.05.897.897 0 0 0-.897-.897.877.877 0 0 0-.758.445 22.83 22.83 0 0 1-13.547-30.552 22.83 22.83 0 0 1 19.353-13.795 22.827 22.827 0 0 1 24.461 22.772h.017ZM215.531 39.445A24.91 24.91 0 0 0 194.26 51.48l-55.381-30.358c-.296.62-.629 1.222-.996 1.803l55.39 30.366a24.82 24.82 0 0 0 .535 23.106l-37.042 22.595a37.578 37.578 0 0 1-.98 3.013l39.108-23.871a24.904 24.904 0 0 0 19.657 11.038v70.659h2.058V89.188a24.882 24.882 0 0 0 16.334-42.608 24.883 24.883 0 0 0-17.363-7.135h-.049Zm14.948 42.137a.874.874 0 0 0-.691.577 22.729 22.729 0 0 1-11.706 4.856v-.099a.895.895 0 0 0-1.496-.578.901.901 0 0 0-.29.579c.005.075.019.15.041.222h-.823A22.825 22.825 0 1 1 234.175 51.2a.887.887 0 0 0 .486.716 22.766 22.766 0 0 1-4.223 29.634l.041.032Z"/>
</svg>