<svg xmlns="http://www.w3.org/2000/svg" id="graphics" viewBox="0 0 1920 1080">
  <defs>
    <style>
      .cls-5,.cls-7{fill:none;stroke-linecap:round;stroke-miterlimit:10;stroke-width:8px;stroke:#fff}.cls-5{stroke-dasharray:0 0 0 25}.cls-7{stroke-dasharray:0 0 0 40}
    </style>
  </defs>
  <path d="M0 0h1920v1080H0z" style="fill:#000;stroke-width:0"/>
  <path d="M1073.13 651.62c-80.8 606.05-637.6 1031.85-1243.66 951.05C-1618.44 1350.8-1340.8-728.47 122.09-592.04c606.04 80.8 1031.84 637.61 951.04 1243.66h0Z" style="stroke:#ec1c24;fill:none;stroke-linecap:round;stroke-miterlimit:10;stroke-width:8px;stroke-dasharray:0 0 0 39.98"/>
  <path d="M-1327.67 1154.83c83.51 152.05 300.31 493.34 689.58 673.19 197.29 91.16 389.75 118.14 421.21 122.33 516.58 68.87 1005.99-141.76 1315.82-515.36 67.24-81.06 126.01-169.79 174.77-265.01 73.69-143.91 124.52-302.61 147.1-472 22.58-169.4 15.11-335.87-18.31-494.06-22.11-104.67-55.58-205.7-99.23-301.54-201.13-441.72-618.26-773.22-1134.84-842.09-516.58-68.87-1005.99 141.76-1315.82 515.36-67.24 81.06-126.01 169.79-174.77 265.01-42.65 83.3-117.1 248.62-147.1 472-24.92 185.54-10.06 343.27 9.74 454.65" style="stroke-dasharray:0 0 0 40.03;stroke:#ec1c24;fill:none;stroke-linecap:round;stroke-miterlimit:10;stroke-width:8px"/>
  <path d="M1031.87-37.49c42.28 84.05 94.38 211.89 117.33 375.03 27.2 193.31 1.79 353.12-21.93 451.79" class="cls-7"/>
  <path d="M1172.14-157.45c28.28 46.15 56.87 99.82 82.6 161.04 11.41 27.16 21.3 53.53 29.89 78.88" class="cls-5"/>
  <path d="M1284.64 943.14a1582.495 1582.495 0 0 1-76.89 183.75 1582.058 1582.058 0 0 1-94.87 165.77" style="stroke:#fff;fill:none;stroke-linecap:round;stroke-miterlimit:10;stroke-width:8px"/>
  <path d="M1345.42 547.34c.79 29.91.09 63.34-3.25 99.6a846.692 846.692 0 0 1-18.53 114.56" class="cls-7"/>
  <path d="M1248.08 674.94C1154.4 1377.62 508.82 1871.3-193.86 1777.62-1872.61 1485.6-1550.71-925.18 145.41-767 848.08-673.31 1341.77-27.73 1248.08 674.94h0Z" style="stroke-dasharray:0 0 0 39.93;stroke:#ec1c24;fill:none;stroke-linecap:round;stroke-miterlimit:10;stroke-width:8px"/>
  <path d="M1604.03 722.41c-119.9 899.3-946.12 1531.13-1845.42 1411.23-2148.51-373.74-1736.53-3459.1 434.2-3256.65 899.29 119.9 1531.11 946.12 1411.22 1845.42h0Z" style="stroke-dasharray:0 0 0 40.01;stroke:#ec1c24;fill:none;stroke-linecap:round;stroke-miterlimit:10;stroke-width:8px"/>
  <path d="M1441.44-1.53c9.84 24.72 19.21 50.59 27.89 77.62 45.28 140.89 59.16 272.74 59.03 384.32" class="cls-5"/>
</svg>