<svg xmlns="http://www.w3.org/2000/svg" fill="none" viewBox="0 0 261 80">
  <path fill="#E00" d="M41.967 27.541c4.102 0 10.036-.846 10.036-5.724a4.587 4.587 0 0 0-.102-1.122l-2.442-10.61c-.564-2.334-1.06-3.393-5.158-5.442-3.19-1.63-10.118-4.315-12.17-4.315-1.908 0-2.476 2.472-4.738 2.472-2.19 0-3.816-1.836-5.865-1.836-1.968 0-3.25 1.341-4.24 4.099 0 0-2.757 7.777-3.111 8.904a2.109 2.109 0 0 0-.079.636c0 3.024 11.912 12.938 27.869 12.938Zm10.672-3.744c.567 2.685.567 2.967.567 3.321 0 4.59-5.16 7.138-11.944 7.138-15.36-.003-28.777-8.977-28.777-14.912 0-.826.168-1.644.495-2.403C7.465 17.22.328 18.211.328 24.5c0 10.32 24.455 23.042 43.82 23.042 14.845 0 18.59-6.714 18.59-12.016 0-4.17-3.607-8.905-10.109-11.731"/>
  <path fill="#000" d="M52.63 23.794c.567 2.685.567 2.967.567 3.321 0 4.59-5.16 7.138-11.944 7.138-15.351 0-28.768-8.974-28.768-14.909 0-.826.168-1.644.495-2.403l1.2-2.97c-.059.205-.086.419-.082.633 0 3.022 11.912 12.937 27.87 12.937 4.101 0 10.035-.846 10.035-5.724a4.592 4.592 0 0 0-.101-1.122l.728 3.099Z"/>
  <path fill="#000" d="M190.242 30.59c0 3.898 2.345 5.793 6.62 5.793a17.08 17.08 0 0 0 3.898-.55v-4.518a8.146 8.146 0 0 1-2.518.38c-1.76 0-2.413-.55-2.413-2.207v-6.93h5.102V17.9h-5.102V12l-5.573 1.206v4.695h-3.699v4.656h3.689l-.004 8.033Zm-17.377.105c0-1.207 1.21-1.794 3.036-1.794 1.117.007 2.228.146 3.312.414v2.344a7.052 7.052 0 0 1-3.476.862c-1.79 0-2.862-.688-2.862-1.826m1.705 5.757c1.967 0 3.554-.413 5.036-1.413v1.105h5.515V24.452c0-4.446-2.997-6.885-7.997-6.885-2.793 0-5.554.656-8.524 2l2 4.105c2.137-.898 3.934-1.45 5.518-1.45 2.295 0 3.482.896 3.482 2.725v.895a16.242 16.242 0 0 0-4.138-.518c-4.692 0-7.518 1.968-7.518 5.486 0 3.206 2.551 5.652 6.62 5.652m-30.309-.308h5.931v-9.46h9.932v9.45h5.931V12.006h-5.918v9.276h-9.931v-9.276h-5.932l-.013 24.148Zm-22.587-9.148c0-2.623 2.069-4.623 4.794-4.623a5.644 5.644 0 0 1 3.862 1.417v6.364a5.36 5.36 0 0 1-3.862 1.449c-2.689 0-4.794-2-4.794-4.62m8.725 9.138h5.518V10.8l-5.574 1.206v6.863a9.276 9.276 0 0 0-4.655-1.207c-5.309 0-9.482 4.102-9.482 9.344a9.26 9.26 0 0 0 9.298 9.387 8.236 8.236 0 0 0 4.895-1.583v1.321Zm-25.308-14c1.757 0 3.239 1.138 3.826 2.895h-7.61c.551-1.826 1.931-2.895 3.794-2.895m-9.423 4.908c0 5.312 4.344 9.45 9.928 9.45 3.068 0 5.311-.83 7.623-2.761l-3.692-3.279c-.863.898-2.138 1.38-3.653 1.38a4.716 4.716 0 0 1-4.485-2.895h13v-1.377c0-5.793-3.895-9.964-9.207-9.964a9.367 9.367 0 0 0-9.508 9.446m-9.626-9.964c1.967 0 3.069 1.24 3.069 2.725s-1.105 2.724-3.069 2.724H80.2v-5.449h5.862ZM74.26 36.145h5.93V27.35h4.516l4.554 8.793h6.62l-5.312-9.656a7.302 7.302 0 0 0 4.55-6.793c0-4.344-3.412-7.689-8.524-7.689H74.27l-.01 24.138ZM241.748 72.62c-1.671 0-3.2-.405-4.585-1.217a9.472 9.472 0 0 1-3.26-3.332c-.788-1.409-1.182-2.985-1.182-4.729 0-1.743.394-3.307 1.182-4.693a9.177 9.177 0 0 1 3.26-3.295c1.385-.836 2.925-1.254 4.621-1.254 1.051 0 2.066.179 3.045.537a8.537 8.537 0 0 1 2.687 1.505v-8.885l2.651-.609v25.686h-2.615v-1.898c-1.576 1.456-3.511 2.185-5.804 2.185Zm.251-2.328c1.123 0 2.161-.215 3.117-.645.979-.453 1.779-1.074 2.4-1.863V58.9c-.621-.764-1.421-1.361-2.4-1.791-.956-.454-1.994-.68-3.117-.68-1.242 0-2.376.298-3.403.895a6.628 6.628 0 0 0-2.4 2.472c-.574 1.027-.86 2.197-.86 3.51 0 1.314.286 2.496.86 3.547a6.912 6.912 0 0 0 2.4 2.508c1.027.62 2.161.931 3.403.931ZM221.742 72.656c-1.719 0-3.284-.406-4.693-1.218a9.566 9.566 0 0 1-3.331-3.367c-.812-1.41-1.218-2.985-1.218-4.729 0-1.72.394-3.272 1.182-4.657.788-1.409 1.851-2.52 3.188-3.332 1.337-.835 2.83-1.253 4.478-1.253 1.6 0 3.033.418 4.299 1.253 1.29.813 2.305 1.923 3.045 3.332.764 1.385 1.146 2.938 1.146 4.657v.824h-14.723c.143 1.17.513 2.221 1.11 3.153a6.906 6.906 0 0 0 2.4 2.22c.98.526 2.054.789 3.225.789.931 0 1.839-.144 2.722-.43.884-.287 1.624-.693 2.221-1.218l1.648 1.755a11.862 11.862 0 0 1-3.152 1.684c-1.075.358-2.257.537-3.547.537Zm-6.556-10.604h12.001c-.143-1.074-.501-2.03-1.074-2.865-.55-.86-1.242-1.529-2.078-2.006a5.263 5.263 0 0 0-2.759-.753 5.73 5.73 0 0 0-2.83.717 6.151 6.151 0 0 0-2.149 2.006c-.573.836-.944 1.803-1.111 2.901ZM201.521 72.656c-1.719 0-3.283-.406-4.693-1.218a9.574 9.574 0 0 1-3.331-3.367c-.812-1.41-1.218-2.985-1.218-4.729 0-1.72.394-3.272 1.182-4.657.788-1.409 1.851-2.52 3.188-3.332 1.338-.835 2.83-1.253 4.478-1.253 1.6 0 3.033.418 4.299 1.253 1.29.813 2.305 1.923 3.045 3.332.764 1.385 1.147 2.938 1.147 4.657v.824h-14.724c.143 1.17.513 2.221 1.11 3.153a6.909 6.909 0 0 0 2.401 2.22c.979.526 2.054.789 3.224.789.931 0 1.839-.144 2.722-.43.884-.287 1.624-.693 2.222-1.218l1.647 1.755a11.847 11.847 0 0 1-3.152 1.684c-1.075.358-2.257.537-3.547.537Zm-6.555-10.604h12.001c-.144-1.074-.502-2.03-1.075-2.865a5.95 5.95 0 0 0-2.078-2.006 5.26 5.26 0 0 0-2.758-.753 5.728 5.728 0 0 0-2.83.717 6.154 6.154 0 0 0-2.15 2.006c-.573.836-.943 1.803-1.11 2.901ZM171.972 79.642V54.386h2.615v1.935c1.553-1.481 3.487-2.221 5.804-2.221 1.695 0 3.224.418 4.585 1.253a8.889 8.889 0 0 1 3.224 3.296c.812 1.385 1.218 2.95 1.218 4.693 0 1.744-.406 3.32-1.218 4.729a9.167 9.167 0 0 1-3.224 3.332c-1.361.811-2.901 1.218-4.621 1.218a8.793 8.793 0 0 1-3.045-.538 9.139 9.139 0 0 1-2.687-1.54v9.099h-2.651Zm8.168-9.35c1.266 0 2.4-.299 3.403-.896a6.715 6.715 0 0 0 2.365-2.471c.597-1.051.895-2.233.895-3.547s-.298-2.496-.895-3.547a6.371 6.371 0 0 0-2.365-2.471c-1.003-.621-2.137-.932-3.403-.932a7.404 7.404 0 0 0-3.152.68 6.188 6.188 0 0 0-2.365 1.828v8.884c.621.764 1.421 1.373 2.4 1.827a7.67 7.67 0 0 0 3.117.645ZM161.717 72.693c-1.481 0-2.878-.24-4.192-.717-1.289-.501-2.412-1.194-3.367-2.078l1.612-1.72a9.775 9.775 0 0 0 2.758 1.792 8.142 8.142 0 0 0 3.081.609c1.433 0 2.603-.299 3.511-.896.907-.597 1.361-1.373 1.361-2.328 0-.788-.275-1.397-.824-1.827-.525-.454-1.361-.765-2.507-.932l-3.117-.43c-1.791-.262-3.129-.8-4.012-1.612-.86-.812-1.29-1.91-1.29-3.295 0-1.004.286-1.9.86-2.687.573-.788 1.361-1.41 2.364-1.863 1.027-.454 2.197-.68 3.511-.68 1.313 0 2.543.19 3.69.572 1.146.383 2.268.98 3.367 1.792l-1.397 1.79c-1.003-.692-1.982-1.193-2.938-1.504a8.416 8.416 0 0 0-2.866-.501c-1.241 0-2.244.274-3.009.824-.764.549-1.146 1.265-1.146 2.15 0 .811.263 1.432.788 1.862.525.406 1.373.693 2.544.86l3.116.43c1.791.238 3.129.764 4.012 1.576.908.812 1.362 1.922 1.362 3.331 0 1.028-.323 1.959-.967 2.795-.645.836-1.517 1.492-2.616 1.97-1.074.478-2.304.717-3.689.717ZM149.608 72.692c-1.553 0-2.747-.37-3.583-1.111-.836-.74-1.254-1.815-1.254-3.224V56.642h-3.869v-2.256h3.869v-4.55l2.615-.68v5.23h5.41v2.256h-5.41v11.034c0 .956.215 1.648.645 2.078.43.406 1.135.609 2.114.609a7.25 7.25 0 0 0 1.325-.108 7.54 7.54 0 0 0 1.29-.358v2.329a6.954 6.954 0 0 1-1.54.358 12.48 12.48 0 0 1-1.612.108ZM123.415 72.334V47.257l2.651-.609V56.5c1.409-1.648 3.295-2.472 5.66-2.472 1.361 0 2.555.299 3.582.896a5.981 5.981 0 0 1 2.436 2.436c.597 1.027.896 2.233.896 3.618v11.356h-2.615V61.515c0-1.6-.454-2.854-1.362-3.761-.883-.932-2.101-1.397-3.654-1.397-1.075 0-2.03.239-2.866.716-.836.478-1.528 1.158-2.077 2.042v13.22h-2.651ZM111.165 80c-1.242 0-2.472-.167-3.69-.502a12.52 12.52 0 0 1-3.332-1.36l1.146-2.079c1.075.573 2.066.992 2.974 1.254a10.25 10.25 0 0 0 2.794.394c1.696 0 2.985-.406 3.869-1.218.884-.812 1.326-2.006 1.326-3.582v-2.508c-1.648 1.385-3.547 2.078-5.696 2.078-1.648 0-3.153-.406-4.514-1.218a9.17 9.17 0 0 1-3.26-3.296c-.788-1.409-1.182-2.973-1.182-4.693 0-1.72.394-3.272 1.182-4.657.812-1.409 1.898-2.52 3.26-3.331 1.361-.813 2.89-1.218 4.585-1.218 1.027 0 2.018.179 2.974.537a8.741 8.741 0 0 1 2.686 1.576v-1.791h2.616V72.87c0 2.293-.669 4.048-2.007 5.266-1.337 1.242-3.248 1.863-5.731 1.863Zm-.394-9.852c1.146 0 2.197-.215 3.152-.644.955-.43 1.732-1.04 2.329-1.828v-8.812c-.597-.764-1.386-1.361-2.365-1.791-.955-.43-1.994-.645-3.116-.645-1.242 0-2.365.298-3.368.895-.979.597-1.755 1.422-2.328 2.472-.574 1.027-.86 2.186-.86 3.475 0 1.29.286 2.46.86 3.511a7.11 7.11 0 0 0 2.364 2.472c1.003.597 2.114.895 3.332.895ZM95.252 72.335V54.388h2.651v17.947h-2.65Zm1.326-21.386c-.478 0-.896-.18-1.254-.538-.358-.358-.537-.776-.537-1.254 0-.501.179-.92.537-1.253.358-.359.776-.538 1.254-.538.501 0 .92.18 1.254.538.358.334.537.752.537 1.253 0 .478-.18.896-.537 1.254a1.644 1.644 0 0 1-1.254.538ZM74.098 72.334V47.257h2.759v22.605h14.938v2.472H74.098Z"/>
</svg>